<svg width="795" height="128" viewBox="0 0 795 128" fill="none" xmlns="http://www.w3.org/2000/svg">
<path d="M172.951 63.9541H140.046C140.046 67.7479 140.853 71.0953 142.378 74.0411C143.857 76.9422 145.874 79.1292 148.34 80.602C150.806 82.0749 153.585 82.8337 156.544 82.8337C158.561 82.8337 160.399 82.6105 162.058 82.1195C163.761 81.6732 165.33 80.9145 166.899 79.9325C168.468 78.906 169.903 77.8795 171.203 76.719C172.548 75.5586 174.251 73.9964 176.313 72.0326C177.165 71.3185 178.376 70.9168 179.989 70.9168C181.693 70.9168 183.127 71.4078 184.203 72.345C185.234 73.2823 185.817 74.6213 185.817 76.3173C185.817 77.8348 185.19 79.5755 184.024 81.6286C182.814 83.637 181.02 85.6009 178.6 87.4308C176.224 89.3054 173.175 90.8229 169.544 92.0726C165.913 93.3223 161.699 93.9025 156.992 93.9025C146.188 93.9025 137.805 90.8229 131.798 84.7082C125.791 78.5936 122.832 70.2473 122.832 59.7587C122.832 54.8045 123.549 50.2073 125.029 45.9672C126.508 41.7272 128.66 38.1119 131.484 35.0769C134.308 32.0419 137.805 29.721 141.974 28.1143C146.098 26.5075 150.716 25.7041 155.782 25.7041C162.371 25.7041 168.02 27.0877 172.682 29.8549C177.389 32.6221 180.886 36.1927 183.262 40.5667C185.593 44.9407 186.759 49.4039 186.759 53.9565C186.759 58.1519 185.548 60.9191 183.127 62.1688C180.707 63.4185 177.3 64.0434 172.906 64.0434L172.951 63.9541ZM140.002 54.4028H170.486C170.082 48.6898 168.513 44.4051 165.823 41.5486C163.134 38.7368 159.592 37.3085 155.199 37.3085C150.806 37.3085 147.578 38.7368 144.888 41.6379C142.198 44.539 140.54 48.7791 140.002 54.4028Z" fill="#23B455"/>
<path d="M208.278 69.7102V83.6802C208.278 87.0723 207.471 89.6163 205.902 91.3124C204.288 93.0084 202.271 93.8564 199.805 93.8564C197.34 93.8564 195.367 93.0084 193.843 91.2677C192.274 89.5717 191.512 87.0276 191.512 83.6802V37.0393C191.512 29.541 194.246 25.7473 199.671 25.7473C202.45 25.7473 204.467 26.6399 205.678 28.3806C206.933 30.1212 207.605 32.7545 207.695 36.1912C209.712 32.7545 211.775 30.1212 213.882 28.3806C215.989 26.6399 218.813 25.7473 222.354 25.7473C225.896 25.7473 229.303 26.6399 232.62 28.3806C235.938 30.1212 237.596 32.4868 237.596 35.3879C237.596 37.441 236.924 39.137 235.489 40.476C234.1 41.8149 232.531 42.4844 230.917 42.4844C230.289 42.4844 228.81 42.1274 226.479 41.3686C224.103 40.6099 222.04 40.2528 220.202 40.2528C217.737 40.2528 215.764 40.9223 214.151 42.172C212.581 43.4663 211.371 45.3855 210.519 47.9296C209.668 50.4736 209.085 53.464 208.726 56.99C208.412 60.4713 208.233 64.756 208.233 69.7549L208.278 69.7102Z" fill="#23B455"/>
<path d="M285.297 84.3052V82.6538C283.056 85.2425 280.814 87.3402 278.618 88.947C276.421 90.5537 274.045 91.8034 271.445 92.6514C268.89 93.4995 266.065 93.9012 263.017 93.9012C258.982 93.9012 255.262 93.0531 251.855 91.3571C248.447 89.6611 245.444 87.2509 242.933 84.082C240.423 80.9577 238.54 77.2532 237.24 72.9685C235.94 68.7284 235.312 64.1313 235.312 59.1771C235.312 48.6885 237.868 40.5207 243.023 34.7185C248.134 28.8716 254.948 25.9259 263.286 25.9259C268.128 25.9259 272.207 26.7739 275.569 28.4253C278.887 30.0767 282.159 32.6208 285.297 36.1021V11.3311C285.297 7.89438 285.97 5.3057 287.359 3.5204C288.749 1.77973 290.722 0.887085 293.232 0.887085C295.742 0.887085 297.715 1.69047 299.105 3.29724C300.494 4.90401 301.167 7.31416 301.167 10.4384V84.2605C301.167 87.4295 300.449 89.8396 298.97 91.4464C297.491 93.0531 295.563 93.8119 293.232 93.8119C290.901 93.8119 289.018 92.9639 287.539 91.3125C286.059 89.6611 285.297 87.2956 285.297 84.2159V84.3052ZM252.258 59.7127C252.258 64.2652 252.975 68.1036 254.365 71.3171C255.755 74.486 257.727 76.8962 260.193 78.503C262.658 80.1097 265.348 80.9131 268.262 80.9131C271.176 80.9131 273.911 80.1544 276.376 78.5922C278.797 77.0747 280.769 74.7092 282.204 71.5403C283.639 68.3714 284.401 64.3991 284.401 59.6681C284.401 55.2494 283.683 51.411 282.204 48.1975C280.769 44.984 278.797 42.5292 276.286 40.8331C273.776 39.1371 271.086 38.2891 268.128 38.2891C265.169 38.2891 262.3 39.1371 259.879 40.8778C257.458 42.6184 255.575 45.1179 254.23 48.3314C252.886 51.5896 252.213 55.3833 252.213 59.6234L252.258 59.7127Z" fill="#23B455"/>
<path d="M355.627 63.9515H322.722C322.722 67.7453 323.529 71.0927 325.053 74.0384C326.533 76.9395 328.55 79.1265 331.016 80.5994C333.481 82.0723 336.261 82.831 339.219 82.831C341.237 82.831 343.075 82.6079 344.733 82.1169C346.437 81.6706 348.006 80.9118 349.575 79.9299C351.144 78.9034 352.579 77.8768 353.879 76.7164C355.224 75.5559 356.927 73.9938 358.989 72.03C359.841 71.3159 361.051 70.9142 362.665 70.9142C364.369 70.9142 365.803 71.4051 366.879 72.3424C367.91 73.2797 368.493 74.6187 368.493 76.3147C368.493 77.8322 367.865 79.5729 366.7 81.626C365.489 83.6344 363.696 85.5982 361.275 87.4282C358.9 89.3027 355.851 90.8203 352.22 92.07C348.589 93.3197 344.375 93.8999 339.668 93.8999C328.864 93.8999 320.481 90.8203 314.474 84.7056C308.467 78.591 305.508 70.2447 305.508 59.7561C305.508 54.8018 306.225 50.2047 307.704 45.9646C309.184 41.7245 311.336 38.1093 314.16 35.0743C316.984 32.0393 320.481 29.7184 324.65 28.1116C328.774 26.5049 333.392 25.7015 338.457 25.7015C345.047 25.7015 350.696 27.0851 355.358 29.8523C360.065 32.6195 363.562 36.1901 365.938 40.5641C368.269 44.9381 369.434 49.4013 369.434 53.9538C369.434 58.1493 368.224 60.9165 365.803 62.1662C363.382 63.4159 359.975 64.0408 355.582 64.0408L355.627 63.9515ZM322.722 54.4002H353.206C352.803 48.6872 351.234 44.4025 348.544 41.546C345.854 38.7342 342.313 37.3059 337.919 37.3059C333.526 37.3059 330.298 38.7342 327.609 41.6353C324.919 44.5364 323.26 48.7765 322.722 54.4002Z" fill="#23B455"/>
<path d="M408.135 78.7708L393.655 21.4627V83.5464C393.655 86.9831 392.893 89.5718 391.324 91.2679C389.799 92.9639 387.737 93.8565 385.227 93.8565C382.716 93.8565 380.744 93.0085 379.175 91.3125C377.606 89.6165 376.844 87.0278 376.844 83.5464V12.4023C376.844 8.47462 377.875 5.8413 379.892 4.4577C381.954 3.11872 384.734 2.4046 388.186 2.4046H393.879C397.286 2.4046 399.752 2.71703 401.276 3.34188C402.8 3.96674 403.965 5.03792 404.683 6.64469C405.4 8.25146 406.252 10.8401 407.193 14.4554L420.328 63.7296L433.463 14.4554C434.405 10.8401 435.256 8.25146 435.974 6.64469C436.691 5.03792 437.856 3.92211 439.381 3.34188C440.905 2.71703 443.415 2.4046 446.822 2.4046H452.471C455.968 2.4046 458.747 3.07409 460.809 4.4577C462.826 5.8413 463.857 8.47462 463.857 12.4023V83.5464C463.857 86.9831 463.095 89.5718 461.526 91.2679C460.002 92.9639 457.94 93.8565 455.385 93.8565C452.964 93.8565 450.947 93.0085 449.422 91.2679C447.853 89.5718 447.091 86.9831 447.091 83.5464V21.5073L432.611 78.8154C431.67 82.5199 430.908 85.2871 430.28 86.9832C429.698 88.6792 428.577 90.2859 427.008 91.7142C425.394 93.1424 423.197 93.8565 420.328 93.8565C418.176 93.8565 416.383 93.4102 414.904 92.4729C413.424 91.5357 412.259 90.3752 411.452 88.947C410.645 87.5187 409.973 85.912 409.524 84.2159C409.031 82.4753 408.538 80.6453 408.09 78.7708H408.135Z" fill="#fff"/>
<path d="M558.485 10.4384V36.0128C561.623 32.71 564.896 30.2106 568.168 28.47C571.441 26.7293 575.52 25.8366 580.362 25.8366C585.965 25.8366 590.852 27.1756 595.066 29.8089C599.28 32.4422 602.552 36.2806 604.838 41.2795C607.17 46.2783 608.335 52.2144 608.335 59.0878C608.335 64.1759 607.663 68.8177 606.408 73.0132C605.107 77.2532 603.225 80.9131 600.759 84.0374C598.293 87.1617 595.29 89.5272 591.793 91.2232C588.296 92.9192 584.396 93.7673 580.182 93.7673C577.582 93.7673 575.161 93.4548 572.875 92.83C570.589 92.2051 568.661 91.4017 567.047 90.4198C565.433 89.4379 564.089 88.3667 562.968 87.3402C561.847 86.3136 560.368 84.7069 558.53 82.5645V84.2159C558.53 87.3402 557.768 89.7503 556.243 91.3571C554.719 92.9639 552.792 93.7673 550.46 93.7673C548.129 93.7673 546.202 92.9639 544.767 91.3571C543.377 89.7503 542.66 87.3402 542.66 84.2159V11.1972C542.66 7.80512 543.333 5.21643 544.722 3.47577C546.112 1.7351 548.04 0.887085 550.505 0.887085C553.105 0.887085 555.078 1.7351 556.468 3.3865C557.857 5.03791 558.575 7.40343 558.575 10.4831L558.485 10.4384ZM559.292 60.2036C559.292 66.8539 560.816 71.9866 563.864 75.5572C566.913 79.1278 570.947 80.9131 575.879 80.9131C580.093 80.9131 583.769 79.0832 586.817 75.4233C589.865 71.7635 591.39 66.5415 591.39 59.7127C591.39 55.2941 590.762 51.5003 589.462 48.3314C588.207 45.1625 586.414 42.6631 584.038 40.9224C581.662 39.1817 578.972 38.3337 575.834 38.3337C572.696 38.3337 569.782 39.1817 567.316 40.9224C564.806 42.6631 562.833 45.1625 561.399 48.4653C559.964 51.7681 559.247 55.6511 559.247 60.2036H559.292Z" fill="#fff"/>
<path d="M624.883 17.9833C622.552 17.9833 620.534 17.2692 618.876 15.841C617.217 14.4127 616.41 12.4043 616.41 9.77094C616.41 7.40542 617.262 5.48622 618.965 3.96872C620.669 2.45121 622.641 1.64783 624.883 1.64783C627.124 1.64783 628.962 2.31731 630.666 3.70092C632.369 5.08453 633.176 7.09299 633.176 9.77094C633.176 12.4489 632.369 14.3681 630.711 15.7963C629.052 17.2246 627.124 17.9833 624.883 17.9833Z" fill="#fff"/>
<path d="M633.178 35.2527V83.6789C633.178 87.0263 632.371 89.5704 630.802 91.2664C629.188 92.9625 627.171 93.8551 624.705 93.8551C622.24 93.8551 620.267 92.9625 618.698 91.2218C617.174 89.4811 616.367 86.9371 616.367 83.6789V35.7883C616.367 32.4408 617.129 29.986 618.698 28.29C620.223 26.594 622.24 25.7906 624.705 25.7906C627.171 25.7906 629.188 26.6386 630.802 28.29C632.416 29.986 633.178 32.3069 633.178 35.2973V35.2527Z" fill="#fff"/>
<path d="M642.017 83.6803V11.0633C642.017 7.71585 642.78 5.1718 644.259 3.47577C645.738 1.77973 647.756 0.887085 650.311 0.887085C652.866 0.887085 654.883 1.7351 656.453 3.43114C658.022 5.12717 658.784 7.67122 658.784 11.0633V83.6803C658.784 87.0724 657.977 89.6164 656.408 91.3125C654.839 93.0085 652.777 93.8565 650.311 93.8565C647.845 93.8565 645.873 92.9639 644.304 91.2232C642.78 89.4825 641.973 86.9385 641.973 83.6803H642.017Z" fill="#fff"/>
<path d="M676.07 17.9833C673.739 17.9833 671.722 17.2692 670.063 15.841C668.405 14.4127 667.598 12.4043 667.598 9.77094C667.598 7.40542 668.449 5.48622 670.153 3.96872C671.856 2.45121 673.829 1.64783 676.07 1.64783C678.312 1.64783 680.15 2.31731 681.853 3.70092C683.557 5.08453 684.364 7.09299 684.364 9.77094C684.364 12.4489 683.557 14.3681 681.898 15.7963C680.24 17.2246 678.312 17.9833 676.07 17.9833Z" fill="#fff"/>
<path d="M684.373 35.2526V83.6788C684.373 87.0262 683.567 89.5703 681.998 91.2663C680.384 92.9623 678.366 93.855 675.901 93.855C673.435 93.855 671.463 92.9623 669.894 91.2217C668.369 89.481 667.562 86.937 667.562 83.6788V35.7881C667.562 32.4407 668.325 29.9859 669.894 28.2899C671.418 26.5939 673.435 25.7905 675.901 25.7905C678.366 25.7905 680.384 26.6385 681.998 28.2899C683.611 29.9859 684.373 32.3068 684.373 35.2972V35.2526Z" fill="#fff"/>
<path d="M697.236 27.2643H699.074V17.1773C699.074 14.4547 699.119 12.357 699.298 10.8395C699.432 9.27737 699.836 7.98303 700.508 6.86722C701.181 5.70677 702.122 4.76949 703.333 4.05537C704.543 3.34125 705.933 2.98419 707.457 2.98419C709.564 2.98419 711.491 3.78758 713.24 5.34971C714.405 6.42089 715.123 7.71523 715.436 9.27737C715.75 10.7949 715.885 12.9819 715.885 15.7937V27.2196H722.026C724.402 27.2196 726.24 27.7998 727.496 28.9157C728.751 30.0315 729.378 31.5043 729.378 33.245C729.378 35.5213 728.482 37.0834 726.689 37.9761C724.895 38.8687 722.34 39.315 719.023 39.315H715.885V70.1114C715.885 72.7447 715.974 74.7532 716.154 76.1814C716.333 77.5651 716.826 78.7255 717.633 79.6181C718.44 80.5108 719.74 80.9571 721.578 80.9571C722.564 80.9571 723.909 80.7786 725.568 80.4215C727.271 80.1091 728.571 79.8859 729.513 79.8859C730.858 79.8859 732.113 80.4215 733.189 81.5373C734.265 82.6085 734.803 83.9475 734.803 85.5543C734.803 88.2768 733.323 90.3299 730.365 91.7135C727.406 93.1418 723.147 93.8559 717.588 93.8559C712.343 93.8559 708.353 92.9632 705.664 91.2226C702.929 89.4819 701.181 87.0271 700.329 83.9029C699.477 80.8232 699.074 76.6724 699.074 71.4504V39.315H696.877C694.456 39.315 692.573 38.7348 691.318 37.619C690.018 36.5032 689.391 35.0303 689.391 33.245C689.391 31.4597 690.063 30.0761 691.408 28.9157C692.753 27.7998 694.68 27.2196 697.236 27.2196V27.2643Z" fill="#fff"/>
<path d="M754.078 95.953L755.647 92.2039L734.936 40.2963C733.636 37.3059 733.008 35.1189 733.008 33.78C733.008 32.3517 733.367 31.0127 734.129 29.763C734.846 28.558 735.877 27.576 737.177 26.8173C738.477 26.1032 739.822 25.7015 741.212 25.7015C743.633 25.7015 745.471 26.4602 746.681 28.0224C747.936 29.5399 749.012 31.7715 749.953 34.628L764.209 75.8684L777.703 37.5291C778.779 34.4048 779.765 31.9947 780.617 30.2094C781.469 28.4687 782.365 27.2636 783.351 26.6388C784.338 26.0139 785.682 25.7015 787.431 25.7015C788.686 25.7015 789.896 26.0585 791.107 26.728C792.272 27.4421 793.169 28.3348 793.841 29.4506C794.469 30.5664 794.783 31.8161 794.783 33.0658C794.603 33.8246 794.379 34.9404 793.976 36.3686C793.617 37.7969 793.169 39.2698 792.631 40.7426L770.709 97.9168C768.827 102.96 766.944 106.888 765.195 109.789C763.402 112.646 760.981 114.877 758.023 116.395C755.064 117.912 751.029 118.716 746.009 118.716C740.988 118.716 737.401 118.18 734.936 117.109C732.47 116.038 731.215 114.074 731.215 111.307C731.215 109.387 731.798 107.914 732.963 106.888C734.129 105.861 735.877 105.326 738.163 105.326C739.06 105.326 739.957 105.46 740.808 105.683C741.884 105.951 742.826 106.04 743.588 106.04C745.515 106.04 747.04 105.728 748.116 105.192C749.236 104.612 750.222 103.63 751.119 102.202C752.016 100.773 753.047 98.7202 754.167 95.953H754.078Z" fill="#fff"/>
<path d="M537.059 59.8465C537.059 64.8453 536.297 69.4424 534.728 73.6379C533.159 77.8333 530.917 81.4486 527.914 84.4836C524.955 87.5186 521.413 89.8395 517.334 91.4463C513.255 93.053 508.592 93.8564 503.482 93.8564C498.371 93.8564 493.799 93.053 489.719 91.4016C485.64 89.7502 482.143 87.4293 479.139 84.3497C476.181 81.3147 473.894 77.6995 472.37 73.5486C470.846 69.3978 470.039 64.8007 470.039 59.7572C470.039 54.7137 470.801 50.0273 472.37 45.8319C473.939 41.6364 476.181 38.0212 479.095 35.0308C482.008 32.0404 485.55 29.7642 489.674 28.1574C493.799 26.5506 498.416 25.7473 503.437 25.7473C508.458 25.7473 513.165 26.5506 517.289 28.202C521.413 29.8534 525 32.1743 527.959 35.2093C530.917 38.2443 533.159 41.8149 534.728 46.0104C536.252 50.1612 537.059 54.803 537.059 59.8018V59.8465ZM520.158 59.8465C520.158 53.0177 518.634 47.7064 515.63 43.9127C512.582 40.1189 508.547 38.1997 503.482 38.1997C500.164 38.1997 497.295 39.0477 494.785 40.7438C492.274 42.4398 490.347 44.9392 489.002 48.242C487.612 51.5448 486.94 55.4278 486.94 59.8018C486.94 64.1758 487.612 68.0142 488.957 71.2724C490.302 74.5305 492.185 77.03 494.695 78.7706C497.161 80.5113 500.12 81.3593 503.482 81.3593C508.592 81.3593 512.627 79.4401 515.63 75.6017C518.634 71.808 520.158 66.4967 520.158 59.7572V59.8465Z" fill="#fff"/>
<path fill-rule="evenodd" clip-rule="evenodd" d="M147.672 12.7143C112.66 26.7289 102.888 78.4579 85.6283 112.111C80.0695 122.956 74.6899 128 65.4103 128C60.2101 128 53.665 124.876 50.8407 120.189L4.75619 44.0016C-19.2275 4.36801 59.0893 -4.37996 105.353 5.21602C91.6354 11.1521 81.4143 21.5961 67.5172 60.9174C66.6655 63.3275 64.5137 64.845 61.9584 65.0235C59.4031 65.2021 57.1168 63.9524 55.9064 61.7207L42.5473 37.3068C40.6196 33.6915 39.0058 31.1475 37.7057 29.6746C36.3609 28.2017 34.2539 27.7108 31.4296 28.1571C29.9503 28.3803 28.6502 28.9605 27.5295 29.8978C26.4088 30.8351 25.557 31.9062 25.019 33.156C24.4811 34.4057 24.3018 35.6107 24.4811 36.8158C24.6156 37.5746 24.8846 38.4226 25.3328 39.4491C25.7811 40.431 26.2743 41.413 26.8122 42.3502C27.3502 43.2875 27.8881 44.2248 28.4709 45.1621L51.1994 82.7873C53.4408 86.4025 55.0547 88.8126 55.9513 90.0177C56.8479 91.2228 58.1031 92.294 59.7169 93.142C61.3308 94.0346 63.3481 94.2578 65.7689 93.9007C67.6517 93.5883 69.1759 93.0081 70.3863 92.0708C71.5967 91.1782 72.5381 90.0177 73.2554 88.5895C98.4943 37.039 96.2977 7.80471 147.672 12.7143Z" fill="#23B455"/>
</svg>
